<?xml version="1.0" encoding="utf-8"?>
<!-- Generator: Adobe Illustrator 22.0.0, SVG Export Plug-In . SVG Version: 6.00 Build 0)  -->
<svg version="1.1" id="Layer_1" xmlns="http://www.w3.org/2000/svg" xmlns:xlink="http://www.w3.org/1999/xlink" x="0px" y="0px"
	 viewBox="0 0 51.3 59.3" style="enable-background:new 0 0 51.3 59.3;" xml:space="preserve">
<style type="text/css">
	.st0{fill:none;stroke:#939393;stroke-miterlimit:10;}
</style>
<g>
	<path class="st0" d="M25.8,36.3c3.6,0,6.5-2.9,6.5-6.5c0-1.4-0.5-2.7-1.2-3.8c-1.2-1.6-3.1-2.7-5.2-2.7c-2.2,0-4.1,1.1-5.2,2.7
		c-0.8,1.1-1.2,2.4-1.2,3.8C19.3,33.4,22.2,36.3,25.8,36.3z"/>
	<polygon class="st0" points="39.9,21.9 39.9,16.5 39.9,15.7 39,15.7 33.6,15.7 33.7,22 	"/>
	<path class="st0" d="M44.1,26.1v15c0,3.9-3.2,7.1-7.1,7.1H14.5c-3.9,0-7.1-3.2-7.1-7.1v-15v-7.5c0-3.9,3.2-7.1,7.1-7.1H37
		c3.9,0,7.1,3.2,7.1,7.1V26.1z"/>
	<path class="st0" d="M35.8,29.8c0,5.5-4.5,10-10,10s-10-4.5-10-10c0-1.3,0.3-2.6,0.7-3.8H11v15c0,1.9,1.6,3.5,3.5,3.5H37
		c1.9,0,3.5-1.6,3.5-3.5V26H35C35.5,27.2,35.8,28.5,35.8,29.8z"/>
</g>
</svg>
