<?xml version="1.0" encoding="utf-8"?>
<!-- Generator: Adobe Illustrator 22.0.0, SVG Export Plug-In . SVG Version: 6.00 Build 0)  -->
<svg version="1.1" id="Layer_1" xmlns="http://www.w3.org/2000/svg" xmlns:xlink="http://www.w3.org/1999/xlink" x="0px" y="0px"
	 viewBox="0 0 51.3 59.3" style="enable-background:new 0 0 51.3 59.3;" xml:space="preserve">
<style type="text/css">
	.st0{fill:none;stroke:#939393;stroke-miterlimit:10;}
</style>
<path class="st0" d="M43.1,21.2c0,0.4,0,0.8,0,1.1c0,11.6-8.8,24.9-24.9,24.9c-4.9,0-9.5-1.4-13.4-3.9c0.7,0.1,1.4,0.1,2.1,0.1
	c4.1,0,7.9-1.4,10.9-3.7c-3.8-0.1-7.1-2.6-8.2-6.1c0.5,0.1,1.1,0.2,1.6,0.2c0.8,0,1.6-0.1,2.3-0.3c-4-0.8-7-4.3-7-8.6v-0.1
	c1.2,0.7,2.5,1,4,1.1c-2.3-1.6-3.9-4.2-3.9-7.3c0-1.6,0.4-3.1,1.2-4.4c4.3,5.3,10.8,8.8,18,9.1c-0.1-0.6-0.2-1.3-0.2-2
	c0-4.8,3.9-8.7,8.7-8.7c2.5,0,4.8,1.1,6.4,2.8c2-0.4,3.9-1.1,5.6-2.1c-0.7,2-2,3.8-3.9,4.8c1.8-0.2,3.5-0.7,5-1.4
	C46.3,18.4,44.8,19.9,43.1,21.2z"/>
</svg>
