<?xml version="1.0" encoding="utf-8"?>
<!-- Generator: Adobe Illustrator 22.0.0, SVG Export Plug-In . SVG Version: 6.00 Build 0)  -->
<svg version="1.1" id="Layer_1" xmlns="http://www.w3.org/2000/svg" xmlns:xlink="http://www.w3.org/1999/xlink" x="0px" y="0px"
	 viewBox="0 0 405 456" style="enable-background:new 0 0 405 456;" xml:space="preserve">
<style type="text/css">
	.st0{fill:#FFFFFF;stroke:#000000;stroke-miterlimit:10;}
	.st1{fill:#FED700;}
	.st2{fill:#FFD700;}
</style>
<path class="st0" d="M113.8,26.7"/>
<g>
	<path class="st1" d="M203,449.7c-6.9,0-11-6.6-14-11.5l-0.1-0.2c-13.3-21.6-27-39.5-44.4-58c-8.6-9.1-16-17-20.9-21.9l-2.8-2.8
		c-4.9-4.9-11.7-11.7-20.6-20.3c-9-8.7-16.4-16-21.3-21c-4-4.1-10.5-10.8-19.1-20.1c-7.3-7.9-13.4-15.4-18.2-22.4
		c-4.5-6.5-9.3-14.1-14.3-22.6c-5.2-8.9-9.3-17.8-12.1-26.5c-3.6-11.2-9.6-33.9-9.6-61c0-32.5,11.8-64.1,32.3-86.8l8.7,6.8
		C28,101.9,17,131.8,17,161.4c0,25.7,5.7,47.4,9.1,58c2.6,7.9,6.3,16.1,11.2,24.4c4.8,8.2,9.5,15.6,13.9,21.9
		c4.5,6.5,10.4,13.8,17.3,21.2c8.4,9.2,14.9,15.9,18.8,19.9c4.9,4.9,12.2,12.1,21.1,20.8c9,8.7,15.8,15.5,20.7,20.4l2.8,2.8
		c5,5,12.5,13,21.1,22.2c17.9,19,32,37.4,45.7,59.7l0.1,0.2c1,1.6,2.9,4.7,4.3,5.9c0.8-0.6,2.2-2.1,4.5-6
		c9.1-15.1,18.9-29.4,29.4-42.4c11.2-14,20.8-25.1,28.4-33.1c7.4-7.7,18.1-18.5,32.7-33c4.4-4.4,8.4-8.2,11.9-11.6
		c3.3-3.2,6.2-6,8.5-8.3c4.6-4.7,10.7-11.3,18.2-19.6c7.5-8.4,13.3-15.5,17.4-21.1c3.9-5.5,8.3-12.4,13.8-21.9
		c10.8-18.4,14.9-32.5,18.4-50.6c1.8-9.7,2.8-19.7,2.8-29.8c0-29.6-11.1-59.5-29.6-80l8.7-6.8c20.5,22.6,32.3,54.3,32.3,86.8
		c0,10.7-1,21.3-2.9,31.6c-3.6,18.7-8.1,34.2-19.6,53.8c-5.7,9.7-10.2,16.9-14.3,22.6c-4.3,6-10.2,13.3-18.1,22.1
		c-7.6,8.4-13.8,15.1-18.5,19.9c-2.4,2.4-5.3,5.2-8.7,8.5c-3.5,3.4-7.4,7.2-11.8,11.5c-14.5,14.4-25.2,25.2-32.5,32.9
		c-7.4,7.7-16.8,18.6-27.8,32.3c-10.1,12.6-19.7,26.5-28.5,41.2C215.1,442,210.5,449.7,203,449.7z"/>
	<path class="st2" d="M291.1,34.1c-15.4-2.4-26.5,0-26.5,0c-22.5,2.5-43.9,11.3-61.6,25.5c-17.7-14.2-39.1-23-61.6-25.5
		c-12.9-2-26.5,0-26.5,0C55,40.7,8.2,91.6,8.2,153.3c0,66.1,53.8,119.9,119.9,119.9c27.3,0,53.7-9.3,74.9-26.2
		c21.2,16.9,47.6,26.2,74.9,26.2c66.1,0,119.9-53.8,119.9-119.9C397.8,91.7,351,40.8,291.1,34.1z M128.1,261.7
		c-59.8,0-108.4-48.6-108.4-108.4S68.3,44.9,128.1,44.9c26.1,0,51.4,9.4,71.1,26.6c6.1,5.3,11.6,11.3,16.4,17.9
		c13.6,18.6,20.9,40.7,20.9,63.9c0,21-5.9,41.1-17.2,58.5c-0.1-0.1-0.3-0.3-0.4-0.4c-0.6-0.6-1.3-1.3-1.9-2
		c-0.3-0.3-0.5-0.6-0.8-0.9c-0.5-0.6-1-1.1-1.5-1.7c-0.3-0.3-0.6-0.7-0.8-1c-0.5-0.6-0.9-1.2-1.4-1.7c-0.3-0.3-0.5-0.7-0.8-1
		c-0.5-0.7-1-1.3-1.5-2c-0.1-0.2-0.3-0.4-0.4-0.6c8.3-14.3,12.6-30.6,12.6-47.2c0-16.7-4.4-32.9-12.7-47.3v-0.1l-2-3.1
		c-3.8-6-8.2-11.5-13.2-16.5c-1.7-1.7-3.4-3.3-5.2-4.8l-4.7-4.1l-0.1,0.2c-16.2-12.1-36-18.7-56.4-18.7c-52,0-94.4,42.3-94.4,94.4
		s42.3,94.4,94.4,94.4c20.4,0,40.3-6.6,56.5-18.8c0.1,0.1,0.1,0.2,0.2,0.3c0.4,0.5,0.8,1,1.2,1.5c0.3,0.4,0.6,0.8,1,1.1
		c0.4,0.5,0.9,1,1.4,1.5c0.3,0.3,0.6,0.7,0.9,1c0.5,0.5,1,1.1,1.5,1.6c0.3,0.3,0.6,0.6,0.8,0.9c0.6,0.6,1.3,1.3,1.9,1.9
		c0.2,0.2,0.3,0.3,0.5,0.5C175.3,253.8,152.1,261.7,128.1,261.7z M228.2,87.2c14.3-10.7,31.7-16.6,49.7-16.6
		c45.6,0,82.8,37.1,82.8,82.8s-37.1,82.8-82.8,82.8c-18,0-35.4-5.9-49.7-16.6c13-19.6,19.9-42.4,19.9-66.2
		C248.1,129.6,241.2,106.8,228.2,87.2z M203,188.7c-5.2-11-7.9-23-7.9-35.4c0-12.3,2.7-24.4,7.9-35.4c5.2,11,7.9,23,7.9,35.4
		S208.2,177.7,203,188.7z M177.8,87.2c-13,19.6-19.9,42.4-19.9,66.2c0,23.8,6.9,46.5,19.9,66.2c-14.3,10.7-31.7,16.6-49.7,16.6
		c-45.6,0-82.8-37.1-82.8-82.8s37.1-82.8,82.8-82.8C146.1,70.6,163.6,76.4,177.8,87.2z M277.9,261.7c-26.1,0-51.4-9.4-71.1-26.6
		c-6.1-5.3-11.6-11.3-16.4-17.9c-13.6-18.6-20.9-40.7-20.9-63.9c0-21,5.9-41.1,17.2-58.5c0.1,0.1,0.3,0.3,0.4,0.4
		c0.6,0.6,1.3,1.3,1.9,2c0.3,0.3,0.5,0.6,0.8,0.9c0.5,0.6,1,1.1,1.5,1.7c0.3,0.3,0.6,0.7,0.8,1c0.5,0.6,0.9,1.2,1.4,1.7
		c0.3,0.3,0.5,0.7,0.8,1c0.5,0.7,1,1.3,1.5,2c0.1,0.2,0.3,0.4,0.4,0.6c-8.3,14.3-12.6,30.6-12.6,47.2c0,16.7,4.4,32.9,12.7,47.3v0.1
		l2,3.1c5.1,8,11.3,15.1,18.4,21.3l4.7,4.1l0.1-0.2c16.2,12.1,36,18.7,56.4,18.7c52,0,94.4-42.3,94.4-94.4S329.9,59,277.9,59
		c-20.4,0-40.3,6.6-56.5,18.8c-0.1-0.1-0.1-0.2-0.2-0.3c-0.4-0.5-0.8-1-1.2-1.5c-0.3-0.4-0.6-0.8-1-1.1c-0.4-0.5-0.9-1-1.3-1.5
		c-0.3-0.4-0.6-0.7-0.9-1.1c-0.5-0.5-1-1.1-1.5-1.6c-0.3-0.3-0.6-0.6-0.9-0.9c-0.6-0.6-1.2-1.2-1.8-1.8c-0.2-0.2-0.4-0.4-0.6-0.6
		C230.9,52.9,254.1,45,278,45c59.8,0,108.4,48.6,108.4,108.4C386.2,213.1,337.6,261.7,277.9,261.7z"/>
	<polygon class="st2" points="134.1,37 131.7,33.8 150.2,20.2 142,9.3 113.3,9.3 105.1,20.2 123.5,33.8 121.2,37 99.4,21 111.3,5.3 
		143.9,5.3 155.8,21 	"/>
	<rect x="104.8" y="16.2" class="st2" width="45.4" height="2"/>
</g>
</svg>
